<svg fill="none" height="32" viewBox="0 0 32 32" width="32" xmlns="http://www.w3.org/2000/svg" xmlns:xlink="http://www.w3.org/1999/xlink"><linearGradient id="a" gradientUnits="userSpaceOnUse" x1="8" x2="32" y1="26.5" y2="26.5"><stop offset="0" stop-color="#163c27"/><stop offset="1" stop-color="#2a6043"/></linearGradient><linearGradient id="b" gradientUnits="userSpaceOnUse" x1="0" x2="18" y1="16" y2="16"><stop offset="0" stop-color="#185a30"/><stop offset="1" stop-color="#176f3d"/></linearGradient><rect fill="#2fb776" height="28" rx="2" width="24" x="8" y="2"/><path d="m8 23h24v5c0 1.1046-.8954 2-2 2h-20c-1.10457 0-2-.8954-2-2z" fill="url(#a)"/><path d="m20 16h12v7h-12z" fill="#229c5b"/><path d="m20 9h12v7h-12z" fill="#27ae68"/><path d="m8 4c0-1.10457.89543-2 2-2h10v7h-12z" fill="#1d854f"/><path d="m8 9h12v7h-12z" fill="#197b43"/><path d="m8 16h12v7h-12z" fill="#1b5b38"/><path d="m8 12c0-1.6569 1.34315-3 3-3h6c1.6569 0 3 1.3431 3 3v12c0 1.6569-1.3431 3-3 3h-9z" fill="#000" fill-opacity=".3"/><rect fill="url(#b)" height="18" rx="2" width="18" y="7"/><path d="m13 21-2.8179-5.1 2.6942-4.9h-2.1993l-1.66325 3.1286-1.63574-3.1286h-2.26804l2.7079 4.9-2.81787 5.1h2.19931l1.7732-3.3143 1.75949 3.3143z" fill="#fff"/></svg>