<svg fill="none" height="32" viewBox="0 0 32 32" width="32" xmlns="http://www.w3.org/2000/svg" xmlns:xlink="http://www.w3.org/1999/xlink"><linearGradient id="a"><stop offset="0" stop-color="#a73a24"/><stop offset="1" stop-color="#f75936"/></linearGradient><linearGradient id="b" gradientUnits="userSpaceOnUse" x1="3" x2="31" xlink:href="#a" y1="17.931" y2="17.931"/><linearGradient id="c" gradientUnits="userSpaceOnUse" x1="31.5" x2="18" y1="10" y2="10"><stop offset="0" stop-color="#fdb8a3"/><stop offset="1" stop-color="#f1876d"/></linearGradient><linearGradient id="d" gradientUnits="userSpaceOnUse" x1="0" x2="18" xlink:href="#a" y1="17.2414" y2="17.2414"/><mask id="e" height="28" maskUnits="userSpaceOnUse" width="28" x="3" y="2"><circle cx="17" cy="16" fill="#c4c4c4" r="14"/></mask><circle cx="17" cy="16" fill="url(#b)" r="14"/><g mask="url(#e)"><path d="m18 0h17v17h-17z" fill="url(#c)"/><path d="m6 12c0-1.6569 1.34315-3 3-3h8c1.6569 0 3 1.3431 3 3v12c0 1.6569-1.3431 3-3 3h-11z" fill="#000" fill-opacity=".3"/><path d="m1 0h17v17h-17z" fill="#eb6c4d"/></g><rect fill="url(#d)" height="18" rx="2" width="18" y="7"/><path d="m13 14.4571c0-2.1571-1.4201-3.4571-3.67213-3.4571h-3.32787v10h2.06557v-3.0429h1.17623c2.1086 0 3.7582-1.2 3.7582-3.5zm-2.0943.0429c0 .9714-.6168 1.6-1.62086 1.6h-1.21927v-3.2286h1.20492c1.00411 0 1.63521.5286 1.63521 1.6286z" fill="#fff"/></svg>